<svg xmlns="http://www.w3.org/2000/svg" viewBox="0 0 45.7 75.85"><defs><style>.cls-1{fill:none;stroke:#000;stroke-miterlimit:10;}</style></defs><g id="Layer_2" data-name="Layer 2"><g id="Layer_1-2" data-name="Layer 1"><path class="cls-1" d="M10.35,52.29A5.82,5.82,0,0,0,9.73,50C8.35,47.49,6.8,45,6.34,42.18A4.39,4.39,0,0,1,6.92,39a1.09,1.09,0,0,0-.24-1.65,5.85,5.85,0,0,1-1.87-4.58,4,4,0,0,0-1.37-3.29c-.51-.44-.59-.76-.09-1.36,1.11-1.33.93-2.05-.5-3A4.15,4.15,0,0,1,.93,21.76,11.24,11.24,0,0,1,2,16.21a3.19,3.19,0,0,0-.42-3.58C.09,10.79.17,9.7,1.65,7.87A12.65,12.65,0,0,0,3.56,3.42,7.59,7.59,0,0,0,4.34.81c0-.37.35-.33.65-.27,1.9.4,3.81.78,5.71,1.2,2.76.6,5.52,1.19,8.26,1.85,1.72.42,3.42,1,5.14,1.43a.68.68,0,0,1,.55.89q-.63,3-1.3,6.05c-.58,2.59-1.12,5.19-1.8,7.75a26.6,26.6,0,0,1-1.2,4.58c-.63,1.32.26,2.3.89,3.27,1.64,2.48,3.35,4.91,5,7.39a7.32,7.32,0,0,1,1.21,3.39,4.29,4.29,0,0,0,2.5,3.43c1.63.63,2.25,1.93,3.1,3.11,3.08,4.28,5.93,8.74,9.5,12.65,1.32,1.44,1.42,3.33,2.06,5,0,.15,0,.36.06.47,1.26,1.7.07,2.74-1,3.86s-1.77,2.87-2.78,4.23c-.51.7-.06,1.68.39,2.36.65,1,.29,1.26-.67,1.65-1.43.57-2.71,0-3.94-.36A30.59,30.59,0,0,0,28,74.15c-1.27,0-1.73-.41-1.91-1.67a46.19,46.19,0,0,0-1.25-5.69c-.43-1.54-1.84-2.16-3.15-2.7a1.46,1.46,0,0,1-1.06-1.38c0-.42,0-.89-.52-1-2-.26-3-1.86-4.19-3.11-.51-.51-.9-1.25-1.83-1.12a.28.28,0,0,1-.33-.37c.29-1.63-.71-.63-1.22-.58-.13,0-.29.26-.37.23-1.1.29-3.12,0-2.77-.86C9.92,54.55,10.6,54.06,10.35,52.29Z"/></g></g></svg>