<svg xmlns="http://www.w3.org/2000/svg" viewBox="0 0 40.41 31.47"><defs><style>.cls-1{fill:none;stroke:#000;stroke-miterlimit:10;}</style></defs><g id="Layer_2" data-name="Layer 2"><g id="Layer_1-2" data-name="Layer 1"><path class="cls-1" d="M1.39,17.36c.6-3.44,1-6.92,1.38-10.4.21-1.73.65-3.43.8-5.18C3.66.75,4.32.4,5.34.52c5.53.64,11.05,1.31,16.59,1.85a72.33,72.33,0,0,0,7.65.26c2.92,0,5.8.46,8.7.57,1.33,0,1.68.49,1.63,1.83-.2,5.37-.49,10.74-.63,16.12-.08,3-.23,6-.53,8.92-.06.65-.24.94-.92.89-3.29-.23-6.59-.42-9.89-.66-1.82-.13-3.64-.43-5.46-.48A138.55,138.55,0,0,1,6,28.42c-1.33-.19-2.7-.09-4.05-.25C.83,28,.33,27.65.55,26.6Z"/></g></g></svg>