<svg xmlns="http://www.w3.org/2000/svg" viewBox="0 0 17.31 30.04"><defs><style>.cls-1{fill:none;stroke:#000;stroke-miterlimit:10;}</style></defs><g id="Layer_2" data-name="Layer 2"><g id="Layer_1-2" data-name="Layer 1"><path class="cls-1" d="M12.78.5c2.07,0,2.19,0,2.3,2.5.16,3.78.67,7.53,1,11.29a24.63,24.63,0,0,0,.57,3,6.6,6.6,0,0,1,0,2.26,1.71,1.71,0,0,1-1.28,1.66,3.61,3.61,0,0,0-2.25,2.12c-.5.95-1,1.91-1.49,2.84-.3.53-.53,1.13-1.45.65-.77-.41-1.46.06-1.81.86-.1.25-.07.73-.32.72-1.33-.07-2.36,1.17-3.77.8a4.56,4.56,0,0,0-2.94.11c-.25.11-.52.33-.77.07s-.13-.6-.06-.91A19.34,19.34,0,0,1,2,25.37a5,5,0,0,0,.44-4A17.4,17.4,0,0,1,1.82,16C1.74,12,1.08,8,1,4.06c0-.68.11-1.2.76-1.43A12.37,12.37,0,0,1,5.59,1.49C7.42,1.44,9.16.72,11,.69,11.59.68,12.18.57,12.78.5Z"/></g></g></svg>