<svg xmlns="http://www.w3.org/2000/svg" viewBox="0 0 33.73 21.95"><defs><style>.cls-1{fill:none;stroke:#000;stroke-miterlimit:10;}</style></defs><g id="Layer_2" data-name="Layer 2"><g id="Layer_1-2" data-name="Layer 1"><path class="cls-1" d="M.52,5.86c.1-1.15.17-2.31.32-3.45A1.25,1.25,0,0,1,2.27,1.28c3,0,6.07.14,9.07-.11C16.2.76,21.05.51,25.91.5c1.78,0,2.33.65,2.05,2.43-.31,1.95.31,2.94,2.53,4a5.44,5.44,0,0,1,2.71,5,2.84,2.84,0,0,1-2.55,2.26c-.89,0-1.11.34-1,1.14.05.6,0,1.2,0,1.8A5.44,5.44,0,0,1,28,21.06a1,1,0,0,1-1.5.11,2.38,2.38,0,0,0-2.25-.45,23.67,23.67,0,0,1-3.94.17c-4.27,0-8.54.37-12.82.26a1.93,1.93,0,0,0-.48,0c-2.28.52-2.22.33-2.84-2.21C3.24,15.4,2.88,11.68,1,8.42A4.35,4.35,0,0,1,.52,5.86Z"/></g></g></svg>