<svg xmlns="http://www.w3.org/2000/svg" viewBox="0 0 41.91 22.14"><defs><style>.cls-1{fill:none;stroke:#000;stroke-miterlimit:10;}</style></defs><g id="Layer_2" data-name="Layer 2"><g id="Layer_1-2" data-name="Layer 1"><path class="cls-1" d="M23.68,21.61c-4.24,0-8.48.09-12.71,0-3.22-.09-6.43-.44-9.65-.67-1.2-.08-.75-1-.69-1.54a73.62,73.62,0,0,0,.43-8c0-3.35.57-6.66.74-10,.05-1,.81-.82,1.42-.84,3.67-.16,7.34.23,11,.22,2.27,0,4.55.1,6.82.17,5.21.16,10.44,0,15.66,0,1.5,0,1.9.37,2,1.86a4,4,0,0,0,1.52,3.08c1,.8.73,2.22.87,3.36a109.31,109.31,0,0,1,.29,11c0,.85-.27,1.05-1.09,1.1C34.78,21.72,29.22,21.63,23.68,21.61Z"/></g></g></svg>