<svg xmlns="http://www.w3.org/2000/svg" viewBox="0 0 37.38 33.25"><defs><style>.cls-1{fill:none;stroke:#000;stroke-miterlimit:10;}</style></defs><g id="Layer_2" data-name="Layer 2"><g id="Layer_1-2" data-name="Layer 1"><path class="cls-1" d="M4.87,1C10.13.94,15.38.36,20.65.53c1.74.06,2.06.48,1.93,2.22a5.27,5.27,0,0,0,1.55,3.78c1.36,1.55,3.09,2.8,3.69,4.91.1.37.38.29.67.29,1.19,0,1.89.72,1.39,1.69-.95,1.82-.15,3,1.24,3.9A19.23,19.23,0,0,1,35.79,22a5.44,5.44,0,0,1,.94,4.71,1,1,0,0,1-.59.84,2.76,2.76,0,0,0-1.62,2.91v.72c0,1.58-.27,1.8-1.81,1.5-1.07-.22-1.26-.73-.55-1.58a1.38,1.38,0,0,0,.39-1.53,1.9,1.9,0,0,0-1.66-1.17,41.23,41.23,0,0,0-6,.28,38.12,38.12,0,0,1-4.26.4c-4.23.05-8.43.45-12.65.72-1.5.1-1.66,0-1.5-1.51a30.61,30.61,0,0,0,.45-5c-.2-4-.32-8-.47-12a1.06,1.06,0,0,0-.53-1A3,3,0,0,1,4.32,7C4.56,5.89,3.82,5.48,3,5.15A7.23,7.23,0,0,1,.5,1.49C.51.91.94,1,1.27,1c.6,0,1.2,0,1.8,0Z"/></g></g></svg>