<svg xmlns="http://www.w3.org/2000/svg" viewBox="0 0 9.42 18.99"><defs><style>.cls-1{fill:none;stroke:#000;stroke-miterlimit:10;}</style></defs><g id="Layer_2" data-name="Layer 2"><g id="Layer_1-2" data-name="Layer 1"><path class="cls-1" d="M8.25,13.91c.95.14.66.82.51,1.33s-.47.72-.29,1.18h0c-.3-.16-.51,0-.75.18C6,17.66,4,17.89,2.1,18.43c-.75.21-1.46-.08-1.51-.92a33.74,33.74,0,0,1,.55-9.35c0-.12,0-.28.11-.34C2.93,6.46,2.42,4.8,2,3.09a2.94,2.94,0,0,1,.18-2C2.56.34,3.2.28,3.59,1a18.06,18.06,0,0,1,1,2.41,44.56,44.56,0,0,1,1.77,6c.12.64.41,1.51,1.46,1.39.28,0,.39.23.34.51Z"/></g></g></svg>