<svg xmlns="http://www.w3.org/2000/svg" viewBox="0 0 36.54 23.63"><defs><style>.cls-1{fill:none;stroke:#000;stroke-miterlimit:10;}</style></defs><g id="Layer_2" data-name="Layer 2"><g id="Layer_1-2" data-name="Layer 1"><path class="cls-1" d="M27,22.73c-4.62-.12-9.24-.26-13.86-.48C9.6,22.09,6,21.79,2.45,21.56.63,21.44.5,21.31.5,19.52V16.28c0-4.94.6-9.84,1-14.76.06-.73.43-1.1,1.18-1A51.47,51.47,0,0,0,9.57.92c5.38-.06,10.75.47,16.13.57q3.29.06,6.57.17c.91,0,1.31.35,1.34,1.27a34,34,0,0,0,1,6.7c.44,4.16.89,9.32,1.33,13.48Z"/></g></g></svg>