<svg xmlns="http://www.w3.org/2000/svg" viewBox="0 0 45.2 36.97"><defs><style>.cls-1{fill:none;stroke:#000;stroke-miterlimit:10;}</style></defs><g id="Layer_2" data-name="Layer 2"><g id="Layer_1-2" data-name="Layer 1"><path class="cls-1" d="M.54,24.58A7.19,7.19,0,0,1,2.4,19.79c1.7-2.24,2-4.76,2.25-7.39,0-.47.15-.94.23-1.41,0-.26.19-.53.43-.51,1.34.14,1.48-1,1.83-1.78C8.21,6.24,9.35,3.8,10.2,1.24c.26-.8,2-1,2.83-.43,1.18.77,1.38,2,1.62,3.19.07.35.13.7.22,1,.19.76.37,1,1.38.69A5.18,5.18,0,0,1,21,6.52a3.1,3.1,0,0,0,1.56.5A93.17,93.17,0,0,0,32,7.25a19.55,19.55,0,0,1,4.7.76,34.25,34.25,0,0,0,4.68.92c1.69.16,2.36,1.47,3.2,2.6a.8.8,0,0,1-.07.81c-.78,1.46-1.47,3.17-2.78,4.05-2,1.33-2.1,2.72-1.47,4.76.51,1.62-.46,3.2-.94,4.73a24,24,0,0,0-1.09,4.73c-.18,1.71-.78,3.34-.83,5.06,0,.69-.43.93-1.16.74-2.45-.66-4.89-1.41-7.38-1.85s-4.78-1.12-7.18-1.66S16.82,31.6,14.35,31q-6-1.39-12.1-2.64c-1-.21-1.62-.56-1.5-1.68C.83,25.94.36,25.23.54,24.58Z"/></g></g></svg>