<svg xmlns="http://www.w3.org/2000/svg" viewBox="0 0 31.81 21.1"><defs><style>.cls-1{fill:none;stroke:#000;stroke-miterlimit:10;}</style></defs><g id="Layer_2" data-name="Layer 2"><g id="Layer_1-2" data-name="Layer 1"><path class="cls-1" d="M3.55,20.58c-.71.1-.8-.32-.95-.79a28.19,28.19,0,0,1-.75-4.47C1.35,12.27,1,9.19.52,6.12c-.11-.8.17-1.34,1-1.47a1.52,1.52,0,0,0,1-.58c.44-.49,1.1-.73,1.55-.1.68,1,1.57.7,2.37.49C9.49,3.66,12.6,3,15.7,2.32c1.86-.41,3.75-.66,5.59-1.13a41.45,41.45,0,0,1,4.6-.68,1.15,1.15,0,0,1,1,.31c1,1,2.11,1.92,3.13,2.92a1.37,1.37,0,0,1,.06,1.67,8.87,8.87,0,0,0-.66,2.51,2.25,2.25,0,0,0,.93,2.5c1.26.85,1.14,1.36.48,2.64-1.53,2.91-4.33,3.24-7,3.71-1.65.29-3.28.62-4.91,1a12.51,12.51,0,0,1-2.45.49Z"/></g></g></svg>