<svg xmlns="http://www.w3.org/2000/svg" viewBox="0 0 39.69 24.18"><defs><style>.cls-1{fill:none;stroke:#000;stroke-miterlimit:10;}</style></defs><g id="Layer_2" data-name="Layer 2"><g id="Layer_1-2" data-name="Layer 1"><path class="cls-1" d="M.52,19.05c.7-3.18.51-6.43.63-9.64.09-2.55.72-5,.58-7.59,0-.77.17-1.41,1.11-1.31C6.9,1,11,.77,15,1c4.37.27,8.74.52,13.11.6,2.88,0,5.74.36,8.61.29.77,0,1.07.14.62.92s0,1.17.4,1.64a5.69,5.69,0,0,1,1.39,4.17c-.11,2.47-.09,5,0,7.43a44.54,44.54,0,0,1-.75,7.11c-.06.51-.29.6-.73.43a17.4,17.4,0,0,1-1.79-.68A2.41,2.41,0,0,0,34,22.58c-1.81.75-3.39-.15-5-.53-2-.45-4-.21-5.95-.46a30.55,30.55,0,0,0-3.83,0c-5.83,0-11.65-.43-17.48-.24-.88,0-1.26-.31-1.15-1.2A9.55,9.55,0,0,0,.52,19.05Z"/></g></g></svg>