<svg xmlns="http://www.w3.org/2000/svg" viewBox="0 0 48.11 17.08"><defs><style>.cls-1{fill:none;stroke:#000;stroke-miterlimit:10;}</style></defs><g id="Layer_2" data-name="Layer 2"><g id="Layer_1-2" data-name="Layer 1"><path class="cls-1" d="M39.5,1.23C41.27,1.31,43,.72,44.7.6a13.89,13.89,0,0,1,2.67,0,8.16,8.16,0,0,1-4.6,4.29c-.18.08-.42.1-.55.23-1.76,1.73-4.1,2.7-5.81,4.49a4.26,4.26,0,0,1-1.51,1.13A1.53,1.53,0,0,0,34.05,12a1.58,1.58,0,0,1-1.51,1.5c-4.37.8-8.77,1.27-13.2,1.65-5,.43-10.06.92-15.11,1.2-1,.06-2,.19-3,.2-.54,0-.9-.17-.69-.78a18.74,18.74,0,0,1,2.51-5.19A2.5,2.5,0,0,0,3.43,8C2.85,6.38,3.15,5.91,5,5.81s3.82-.17,5.73-.26c.35,0,.8.13,1-.17,1.33-1.73,3.35-1.21,5.07-1.46,3.81-.55,7.66-.87,11.5-1.27Z"/></g></g></svg>