<svg xmlns="http://www.w3.org/2000/svg" viewBox="0 0 31.34 39.2"><defs><style>.cls-1{fill:none;stroke:#000;stroke-miterlimit:10;}</style></defs><g id="Layer_2" data-name="Layer 2"><g id="Layer_1-2" data-name="Layer 1"><path class="cls-1" d="M26.42,38.69c-2.66-.44-5.33-.86-8-1.31-2.15-.35-4.3-.74-6.46-1.09-2.34-.38-4.7-.69-7-1.1a24.37,24.37,0,0,0-2.83-.39c-1.47-.09-1.71-.53-1.54-2C1,29.13,1.72,25.46,2.38,21.79c.63-3.51,1.29-7,1.93-10.54C4.87,8.13,5.61,5,5.89,1.86,6,.7,6.46.33,7.67.57c4.25.85,8.56,1.27,12.85,1.85.83.12.74.6.67,1.1-.22,1.58-.4,3.16-.72,4.71-.22,1,.12,1.3,1.1,1.44,2.79.39,5.6.64,8.36,1.29.77.18,1,.5.88,1.21-.39,2.52-.63,5-1,7.56-.65,4.2-1.11,8.43-1.61,12.65-.23,1.9-.88,3.73-.73,5.67C27.49,38.8,26.9,38.7,26.42,38.69Z"/></g></g></svg>