<svg xmlns="http://www.w3.org/2000/svg" viewBox="0 0 230.23 230.48"><g id="Layer_2" data-name="Layer 2"><g id="Layer_1-2" data-name="Layer 1"><path d="M57.51,79.3,76.93,98.65c3.6,3.59,7.22,7.15,10.78,10.77a1.75,1.75,0,0,0,2.27.49c4.28-1.77,8.6-3.44,12.87-5.25a3.26,3.26,0,0,0,1.59-1.6c1.78-4.21,3.41-8.48,5.19-12.69a2,2,0,0,0-.58-2.57q-14.53-14.46-29-29A7.52,7.52,0,0,0,79,58.06l.12-.63c3.63-1,7.2-2.39,10.89-3.11,23.6-4.58,45.68,8.29,53.34,31.12a42.58,42.58,0,0,1-.28,28.4,3.16,3.16,0,0,0,.91,3.87q39.44,39.31,80.24,80.18c5.76,5.77,7.47,12.57,4.9,20.35-3.33,10.07-16.09,15.31-25.47,10.34a26.31,26.31,0,0,1-6.17-4.51Q156.56,183.36,117.34,144a2.93,2.93,0,0,0-3.56-.82,45.85,45.85,0,0,1-59.11-31.79C51.71,100,53.23,89.28,57.51,79.3Zm4.08,15c-.25,1.47-.46,2.58-.63,3.69a10.62,10.62,0,0,0-.15,1.69,37.38,37.38,0,0,0,9.47,25.11c11.82,13.22,28.93,16.77,45.37,9.52a2.62,2.62,0,0,1,3.51.63q41.66,41.76,83.39,83.43a26.44,26.44,0,0,0,2.21,2A11,11,0,0,0,222,215.36c1.62-4.85,0-8.79-3.44-12.26q-42-42-84-83.9a2.26,2.26,0,0,1-.57-3,37.65,37.65,0,0,0,3.85-16.7,38.5,38.5,0,0,0-32.64-38A22.84,22.84,0,0,0,94,62.06c.78.66,1.34,1.07,1.82,1.55,7.43,7.38,14.83,14.78,22.29,22.13a2.27,2.27,0,0,1,.63,2.92c-2.79,6.77-5.45,13.59-8.24,20.36a3.47,3.47,0,0,1-1.73,1.69C102,113.5,95.14,116.17,88.36,119a2.16,2.16,0,0,1-2.77-.56c-7.39-7.51-14.84-15-22.27-22.42C62.84,95.49,62.34,95,61.59,94.33Z"/><path d="M157.25,124.75c3-7.83,5.4-18.94,5.05-27.33a60.45,60.45,0,0,0-4-19.15,1.45,1.45,0,0,1,.42-1.82q8.53-8.48,17-17c.23-.23.48-.45.73-.68,13.91,24.74,11.66,56.06-2.34,82.16,3.86,3.71,7.38,7.51,10.63,10.3,4-7,9-16.42,11.24-24.32a95.2,95.2,0,0,0,3.77-28.17c-.82-28.81-11.7-53.25-33.07-72.93A97.52,97.52,0,0,0,127.42,4,93.55,93.55,0,0,0,97,.1c-29.29,1.43-53.82,13-73.05,35.23A96.64,96.64,0,0,0,1.73,82.27C1,86.5.68,90.82.17,95.1c0,.33-.11.65-.17,1v7.75c.2,2,.38,4.11.6,6.16a100,100,0,0,0,56.91,80.36,100.3,100.3,0,0,0,28.36,8.45,94.48,94.48,0,0,0,28.49-.06c12.58-1.94,28.08-6.87,38.51-12.75-2.79-3.44-7.67-7.8-11-10.74-11.09,5.75-24.59,11.21-36.89,12-16.47,1-31.82-2.86-46.35-10.64.27-.29.47-.52.68-.73q8.58-8.58,17.14-17.17a1.35,1.35,0,0,1,1.68-.37,59.89,59.89,0,0,0,24.63,4c6.49-.3,16.78-1.66,22.84-4L115,147.18l-.44.16a44.8,44.8,0,0,1-14.66,2.4c-28.38,0-49.89-22.19-49.84-49.83,0-28.08,22-49.25,49.8-49.92,27.8.67,49.82,21.87,49.79,49.93a45.51,45.51,0,0,1-2.35,14.49l-.15.44m-109.67-13a60.46,60.46,0,0,0,4,19.76,1.38,1.38,0,0,1-.37,1.76C35.42,129.1,29.72,134.83,24,140.55a9.11,9.11,0,0,0-.61.83,87.57,87.57,0,0,1-10.52-33.75c-1.62-17.35,2.21-33.56,10.44-49L36.4,71.76c1.56,1.56,3.1,3.15,4.69,4.68a1.45,1.45,0,0,1,.44,1.83A59.74,59.74,0,0,0,37.52,101.89ZM140.52,24q-8.61,8.61-17.21,17.23a1.26,1.26,0,0,1-1.58.36,60.44,60.44,0,0,0-24.13-4,59.81,59.81,0,0,0-19.25,4,1.6,1.6,0,0,1-2-.44c-5.62-5.68-11.28-11.31-16.92-17-.24-.23-.46-.48-.71-.73a83.85,83.85,0,0,1,82.39,0C140.9,23.59,140.72,23.81,140.52,24Z"/></g></g></svg>